# xmcd
#
# Track frame offsets:
#	150
#	24600
#	41412
#	51900
#	65600
#	78537
#	92200
#	105000
#	120712
#	135550
#	149447
#	175415
#	191800
#	214055
#	229767
#	245650
#
# Disc length: 3541
#
# Revision: 5
# Processed by: cddbd v1.5.1PL0 Copyright (c) Steve Scherf et al.
# Submitted via: Grip 2.94
# Normalized: r3:TSWAP
#
DISCID=e60dd310
DTITLE=Various Artist - The Best of Blues
DYEAR=1900
DGENRE=
TTITLE0=Muddy Waters - Mannish Boy
TTITLE1=Sunnyland Slim - Stella Mae
TTITLE2=Sugar Blue - Another Man Done Goe
TTITLE3=Blind Lemon Jefferson - Match Box Blues
TTITLE4=Mississippi John Hurt - Got the Blues (Can't be Satisfied)
TTITLE5=Bukka White - Shake 'Em On Down
TTITLE6=Robert Johnson - Come on in My Kitchen
TTITLE7=Bessie Smith - "Taint Nobody's Business If I Do
TTITLE8=Cab Calloway - Minnie The Moocher
TTITLE9=Memphis Minnie - Hoodoo Lady
TTITLE10=Fleetwood Mac - Hungry Country Girl
TTITLE11=Muddy Waters - The Blues Had A Baby And They Named It Rock And Roll
TTITLE12=Stevie Ray Vaughan And Double Trouble - The Things That I Used To Do
TTITLE13=Taj Mahal - She Caught The Katy And Left Me A Mule To Ride
TTITLE14=Keb Mo - She Just Wants To Dance
TTITLE15=G. Love And Special Sauce - Stepping Stones
EXTD=
EXTT0=
EXTT1=
EXTT2=
EXTT3=
EXTT4=
EXTT5=
EXTT6=
EXTT7=
EXTT8=
EXTT9=
EXTT10=
EXTT11=
EXTT12=
EXTT13=
EXTT14=
EXTT15=
PLAYORDER=
